HIERARCHY
ROOT hip
{
	OFFSET 0.000000 0.000000 0.000000
	CHANNELS 6 Xposition Yposition Zposition Xrotation Zrotation Yrotation 
	JOINT abdomen
	{
		OFFSET 0.000000 3.422050 0.000000
		CHANNELS 3 Xrotation Zrotation Yrotation 
		JOINT chest
		{
			OFFSET 0.000000 8.486693 -0.684411
			CHANNELS 3 Xrotation Zrotation Yrotation 
			JOINT neck
			{
				OFFSET 0.000000 10.266162 -0.273764
				CHANNELS 3 Xrotation Zrotation Yrotation 
				JOINT head
				{
					OFFSET 0.000000 3.148285 0.000000
					CHANNELS 3 Xrotation Zrotation Yrotation 
					End Site
					{
						OFFSET 0.000000 3.148289 0.000000
					}
				}
			}
			JOINT lCollar
			{
				OFFSET 3.422053 6.707223 -0.821293
				CHANNELS 3 Yrotation Zrotation Xrotation 
				JOINT lShldr
				{
					OFFSET 3.285171 0.000000 0.000000
					CHANNELS 3 Zrotation Yrotation Xrotation 
					JOINT lForeArm
					{
						OFFSET 10.129278 0.000000 0.000000
						CHANNELS 3 Yrotation Zrotation Xrotation 
						JOINT lHand
						{
							OFFSET 8.486692 0.000000 0.000000
							CHANNELS 3 Zrotation Yrotation Xrotation 
							End Site
							{
								OFFSET 4.106464 0.000000 0.000000
							}
						}
					}
				}
			}
			JOINT rCollar
			{
				OFFSET -3.558935 6.707223 -0.821293
				CHANNELS 3 Yrotation Zrotation Xrotation 
				JOINT rShldr
				{
					OFFSET -3.148289 0.000000 0.000000
					CHANNELS 3 Zrotation Yrotation Xrotation 
					JOINT rForeArm
					{
						OFFSET -10.266159 0.000000 0.000000
						CHANNELS 3 Yrotation Zrotation Xrotation 
						JOINT rHand
						{
							OFFSET -8.349810 0.000000 0.000000
							CHANNELS 3 Zrotation Yrotation Xrotation 
							End Site
							{
								OFFSET -4.106464 0.000000 0.000000
							}
						}
					}
				}
			}
		}
	}
	JOINT lThigh
	{
		OFFSET 5.338403 -1.642589 1.368821
		CHANNELS 3 Xrotation Zrotation Yrotation 
		JOINT lShin
		{
			OFFSET -2.053232 -20.121670 0.000000
			CHANNELS 3 Xrotation Zrotation Yrotation 
			JOINT lFoot
			{
				OFFSET 0.000000 -19.300380 -1.231939
				CHANNELS 3 Xrotation Yrotation Zrotation 
				End Site
				{
					OFFSET 0.000000 -2.463878 4.653993
				}
			}
		}
	}
	JOINT rThigh
	{
		OFFSET -5.338403 -1.642589 1.368821
		CHANNELS 3 Xrotation Zrotation Yrotation 
		JOINT rShin
		{
			OFFSET 2.053232 -20.121670 0.000000
			CHANNELS 3 Xrotation Zrotation Yrotation 
			JOINT rFoot
			{
				OFFSET 0.000000 -19.300380 -1.231939
				CHANNELS 3 Xrotation Yrotation Zrotation 
				End Site
				{
					OFFSET 0.000000 -2.463878 4.653993
				}
			}
		}
	}
}
MOTION
Frames: 8
Frame Time: 0.049897
19.995884 6.099210 0.952190 -103.229134 0.000000 0.000000 18.577024 -0.059062 -0.050653 -1.753291 -0.189825 -0.752554 23.594267 5.466802 8.991890 -4.840400 2.057344 -0.171326 8.118203 -10.105247 8.630867 -49.793789 -25.132147 -11.791875 -47.159424 -36.713829 22.779221 -2.087603 13.944900 3.621673 -7.574691 10.650787 8.302353 49.755497 25.098726 -11.820928 46.340469 36.699532 23.460247 2.576043 -13.734098 3.825215 -7.714227 5.221020 27.216230 53.226402 25.898350 5.712568 20.438086 -6.539942 -16.657764 -7.688753 -5.621972 -27.853947 53.227974 -25.899939 -5.717782 20.303736 7.035954 16.125605 
19.995884 6.075480 0.952190 -102.953819 0.000000 0.000000 18.251675 -0.059091 -0.050644 -2.078636 -0.189866 -0.752567 23.811268 5.434608 8.697962 -4.593344 1.884516 -0.479942 7.817935 -10.537946 8.622069 -49.588863 -25.142876 -11.917968 -46.132339 -36.082447 23.368299 -2.412563 13.490377 3.635263 -7.301616 11.053540 8.307418 49.552437 25.110947 -11.945548 45.325947 36.084717 24.047993 2.875184 -13.291592 3.830335 -8.059600 5.298959 27.355354 53.226402 25.898350 5.712568 20.432680 -6.649981 -16.533073 -8.034691 -5.680768 -27.958588 53.227974 -25.899939 -5.717782 20.306311 7.119786 16.028795 
19.995884 6.051751 0.952190 -102.678566 0.000000 0.000000 17.926334 -0.059119 -0.050634 -2.403969 -0.189908 -0.752579 24.028419 5.403522 8.403921 -4.345376 1.713020 -0.789278 7.517194 -10.970555 8.610952 -49.383919 -25.153204 -12.044118 -45.122208 -35.443230 23.938292 -2.736995 13.035981 3.651472 -7.028215 11.456281 8.310528 49.349339 25.122780 -12.070230 44.327641 35.462029 24.617409 3.173803 -12.849157 3.837814 -8.404807 5.377726 27.494009 53.226402 25.898350 5.712568 20.427511 -6.760030 -16.408363 -8.380542 -5.740189 -28.062876 53.227974 -25.899939 -5.717782 20.309015 7.203609 15.931957 
19.995884 6.028021 0.952190 -102.403290 0.000000 0.000000 17.601009 -0.059148 -0.050624 -2.729287 -0.189950 -0.752591 24.245714 5.373547 8.109785 -4.096513 1.542868 -1.099321 7.215956 -11.403047 8.597503 -49.178940 -25.163128 -12.170318 -44.128693 -34.796589 24.489496 -3.060929 12.581748 3.670285 -6.754468 11.858990 8.311680 49.146187 25.134199 -12.194964 43.345291 34.831921 25.168779 3.471925 -12.406819 3.847639 -8.749844 5.457316 27.632189 53.226402 25.898350 5.712568 20.422586 -6.870090 -16.283640 -8.726299 -5.800232 -28.166805 53.227974 -25.899939 -5.717782 20.311874 7.287429 15.835108 
19.995884 6.004292 0.952190 -102.128044 0.000000 0.000000 17.275713 -0.059176 -0.050614 -3.054583 -0.189992 -0.752602 24.463148 5.344683 7.815561 -3.846762 1.374074 -1.410064 6.914200 -11.835393 8.581714 -48.973930 -25.172644 -12.296564 -43.151508 -34.143013 25.022242 -3.384390 12.127708 3.691686 -6.480361 12.261642 8.310866 48.943005 25.145227 -12.319754 42.378582 34.194771 25.702364 3.769576 -11.964618 3.859797 -9.094704 5.537729 27.769901 53.226402 25.898350 5.712568 20.417896 -6.980156 -16.158897 -9.071950 -5.860890 -28.270370 53.227974 -25.899939 -5.717782 20.314873 7.371245 15.738236 
19.995884 5.980562 0.952190 -101.852798 0.000000 0.000000 16.950434 -0.059205 -0.050604 -3.379853 -0.190034 -0.752613 24.680706 5.316934 7.521260 -3.596133 1.206650 -1.721496 6.611897 -12.267558 8.563573 -48.768871 -25.181747 -12.422852 -42.190304 -33.482906 25.536831 -3.707407 11.673907 3.715663 -6.205870 12.664213 8.308078 48.739784 25.155851 -12.444592 41.427258 33.551033 26.218462 4.066782 -11.522580 3.874279 -9.439370 5.618953 27.907116 53.226402 25.898350 5.712568 20.413446 -7.090230 -16.034136 -9.417492 -5.922163 -28.373562 53.227974 -25.899939 -5.717782 20.318018 7.455053 15.641340 
19.995884 5.956832 0.952190 -101.577599 0.000000 0.000000 16.625189 -0.059233 -0.050594 -3.705093 -0.190076 -0.752625 24.898371 5.290298 7.226889 -3.344638 1.040609 -2.033609 6.309023 -12.699513 8.543068 -48.563782 -25.190435 -12.549174 -41.244740 -32.816708 26.033617 -4.030011 11.220377 3.742202 -5.930975 13.066675 8.303303 48.536510 25.166067 -12.569475 40.490978 32.901085 26.717369 4.363566 -11.080734 3.891068 -9.783845 5.700986 28.043842 53.226402 25.898350 5.712568 20.409245 -7.200312 -15.909355 -9.762918 -5.984047 -28.476383 53.227974 -25.899939 -5.717782 20.321306 7.538856 15.544423 
19.995884 5.933103 0.952190 -101.302399 0.000000 0.000000 16.299980 -0.059261 -0.050583 -4.030294 -0.190118 -0.752635 25.116148 5.264781 6.932463 -3.092288 0.875963 -2.346391 6.005559 -13.131229 8.520190 -48.358677 -25.198721 -12.675543 -40.314480 -32.144836 26.512939 -4.352221 10.767146 3.771288 -5.655662 13.469009 8.296538 48.333214 25.175888 -12.694407 39.569462 32.245350 27.199398 4.659953 -10.639120 3.910157 -10.128115 5.783823 28.180071 53.226402 25.898350 5.712568 20.405281 -7.310400 -15.784560 -10.108217 -6.046535 -28.578819 53.227974 -25.899939 -5.717782 20.324738 7.622651 15.447486 
